<?xml version="1.0" encoding="UTF-8"?>
<svg width="247px" height="245px" viewBox="0 0 247 245" version="1.1" xmlns="http://www.w3.org/2000/svg" xmlns:xlink="http://www.w3.org/1999/xlink">
    <!-- Generator: Sketch 48.2 (47327) - http://www.bohemiancoding.com/sketch -->
    <title>ukor</title>
    <desc>Created with Sketch.</desc>
    <defs></defs>
    <g id="ukor-" stroke="none" stroke-width="1" fill="none" fill-rule="evenodd" transform="translate(-378.000000, -352.000000)">
        <g id="Group-2" transform="translate(378.000000, -512.000000)" fill="#7B00FF">
            <g id="ukor" transform="translate(0.000000, 864.000000)">
                <path d="M197,50 L148,50 L148,99 L148,148 L98,148 L98,99 L98,50 L50,50 L50,98 L50,147 L50,195 L99,195 L149,195 L197,195 L197,146 L197,97 L197,50 Z M197,48 L247,48 L247,97 L247,146 L247,196 L247,245 L197,245 L149,245 L99,245 L50,245 L1.12976295e-12,245 L1.13672627e-12,196 L1.13672627e-12,147 L1.13672627e-12,98 L1.13658416e-12,50 L1.13686838e-12,-5.63213731e-15 L50,3.55271368e-15 L98,3.36901666e-15 L148,3.55271368e-15 L197,3.55271368e-15 L197,48 Z" id="Combined-Shape"></path>
            </g>
        </g>
    </g>
</svg>